<?xml version="1.0" encoding="UTF-8"?>
<svg version="1.1" xmlns="http://www.w3.org/2000/svg" viewBox="300 350 1000 150" width="290" height="65">
<path d="M0 0 C5.94 0 11.88 0 18 0 C22.29 15.18 26.58 30.36 31 46 C32.71217628 43.43173558 33.61467767 41.57114335 34.60400391 38.7121582 C34.90416412 37.85149246 35.20432434 36.99082672 35.51358032 36.1040802 C35.83136444 35.17899155 36.14914856 34.25390289 36.4765625 33.30078125 C36.80667328 32.35059616 37.13678406 31.40041107 37.47689819 30.4214325 C38.53026223 27.38648991 39.57769574 24.34953837 40.625 21.3125 C41.33815202 19.25442223 42.05168899 17.19647781 42.765625 15.13867188 C44.51488721 10.09398436 46.2588334 5.04748713 48 0 C52.95 0 57.9 0 63 0 C63.4439209 1.24612061 63.8878418 2.49224121 64.34521484 3.77612305 C65.99544895 8.40765419 67.64694899 13.03873308 69.29882812 17.66967773 C70.01303996 19.67248455 70.7269103 21.67541318 71.44042969 23.6784668 C72.46719642 26.56070683 73.49519803 29.44250384 74.5234375 32.32421875 C75.00011368 33.66355721 75.00011368 33.66355721 75.48641968 35.029953 C76.92218424 39.05031056 78.36997072 43.05305136 80 47 C80.24096657 46.13889366 80.24096657 46.13889366 80.48680115 45.26039124 C82.15364307 39.30634276 83.82509121 33.35360154 85.49926758 27.40161133 C86.12415869 25.1776624 86.74785907 22.95337854 87.37036133 20.72875977 C88.26333659 17.53834457 89.16053313 14.34914316 90.05859375 11.16015625 C90.3377916 10.15912369 90.61698944 9.15809113 90.90464783 8.12672424 C91.16484207 7.20584518 91.42503632 6.28496613 91.69311523 5.33618164 C91.92183823 4.52121719 92.15056122 3.70625275 92.38621521 2.86659241 C93 1 93 1 94 0 C96.86267567 -0.07325168 99.700719 -0.09238205 102.5625 -0.0625 C103.36880859 -0.05798828 104.17511719 -0.05347656 105.00585938 -0.04882812 C107.00393756 -0.03700518 109.00197783 -0.01906914 111 0 C109.41262655 8.09841656 106.86813865 15.81652617 104.24609375 23.625 C103.78021575 25.02211449 103.31464994 26.41933312 102.84938049 27.81665039 C101.8797128 30.72556429 100.90698286 33.6334294 99.93188477 36.54052734 C98.68027702 40.27250653 97.43542877 44.00669857 96.19268703 47.74163818 C95.23504353 50.6179006 94.27442183 53.49316102 93.31282234 56.36810303 C92.85230493 57.74580138 92.39259971 59.12377149 91.93371391 60.50201416 C91.2952762 62.4176963 90.65251049 64.33193443 90.00952148 66.24609375 C89.64471176 67.33591553 89.27990204 68.4257373 88.90403748 69.54858398 C88 72 88 72 87 73 C84.64686445 73.07271741 82.29166332 73.08370868 79.9375 73.0625 C78.00197266 73.04896484 78.00197266 73.04896484 76.02734375 73.03515625 C75.02832031 73.02355469 74.02929688 73.01195312 73 73 C68.74858122 63.24233316 65.18968489 53.29432127 61.6875 43.25 C61.13248272 41.66655402 60.57714623 40.0832199 60.02148438 38.5 C58.6773149 34.66794308 57.33744349 30.83440929 56 27 C52.08205116 36.41687703 48.69591457 46.0287584 45.25 55.625 C44.64208818 57.31386008 44.03401656 59.00266265 43.42578125 60.69140625 C41.94867744 64.79361002 40.47373886 68.89658621 39 73 C34.05 73 29.1 73 24 73 C10.54120019 33.72037315 10.54120019 33.72037315 4.77410889 16.49957275 C4.34223568 15.2107754 3.90933752 13.92232103 3.47540283 12.63421631 C2.87901157 10.86262937 2.28703281 9.08955878 1.6953125 7.31640625 C1.36547363 6.33099854 1.03563477 5.34559082 0.69580078 4.33032227 C0 2 0 2 0 0 Z " fill="#D1D5DB" transform="translate(730,382)"/>
<path d="M0 0 C0 0.66 0 1.32 0 2 C5.61 2 11.22 2 17 2 C21.73711119 12.7661618 25.37531917 23.81958008 29 35 C31.16947229 31.74579156 32.16084987 28.85741772 33.3828125 25.14453125 C33.60194305 24.48289474 33.82107361 23.82125824 34.04684448 23.13957214 C34.74380979 21.03192179 35.43447773 18.92226898 36.125 16.8125 C36.59724213 15.38072272 37.06989367 13.9490804 37.54296875 12.51757812 C38.70083994 9.01349427 39.85016931 5.50677145 41 2 C46.94 2 52.88 2 59 2 C56.37036009 11.93194766 52.2709911 21.19691112 48.25 30.625 C47.551628 32.27454688 46.85370847 33.9242854 46.15625 35.57421875 C44.4483634 39.60900914 42.72680205 43.63777234 40.99905396 47.66409302 C40.01298671 49.96963552 39.03713735 52.27930913 38.06225586 54.58959961 C37.45204815 56.01953412 36.84147097 57.44931104 36.23046875 58.87890625 C35.82692169 59.84475143 35.82692169 59.84475143 35.41522217 60.83010864 C32.48161083 67.63842294 28.25666498 73.83442687 21.375 77.0625 C15.63521276 78.7729566 6.42797412 79.71398706 1 77 C1.66 72.38 2.32 67.76 3 63 C4.7325 62.9175 6.465 62.835 8.25 62.75 C12.6953221 62.3519231 12.6953221 62.3519231 16.5625 60.25 C18.74929653 56.84112114 18.74929653 56.84112114 20 53 C19.23034233 49.81649725 17.89039867 46.91638923 16.546875 43.9375 C16.17145569 43.06859131 15.79603638 42.19968262 15.40924072 41.30444336 C14.20572975 38.52888396 12.97844464 35.76460145 11.75 33 C10.93718904 31.13872441 10.12597226 29.27675178 9.31640625 27.4140625 C7.82732563 23.99161291 6.32818314 20.57393291 4.81933594 17.16015625 C3.48417893 14.12946278 2.19921996 11.08771849 1 8 C0.67 9.98 0.34 11.96 0 14 C-0.68707031 14.20496094 -1.37414063 14.40992188 -2.08203125 14.62109375 C-2.98308594 14.89050781 -3.88414063 15.15992188 -4.8125 15.4375 C-5.70582031 15.70433594 -6.59914063 15.97117187 -7.51953125 16.24609375 C-11.56193225 17.17748791 -11.56193225 17.17748791 -14.16162109 20.08081055 C-15.18396154 23.64054401 -15.3530817 27.03257909 -15.4140625 30.70703125 C-15.43342865 31.43242599 -15.4527948 32.15782074 -15.4727478 32.90519714 C-15.53222108 35.20751422 -15.57879845 37.50988219 -15.625 39.8125 C-15.66320958 41.37957832 -15.70226303 42.94663631 -15.7421875 44.51367188 C-15.83947495 48.34233825 -15.91929594 52.1708049 -16 56 C-20.95 56 -25.9 56 -31 56 C-31 38.18 -31 20.36 -31 2 C-26.38 2 -21.76 2 -17 2 C-16.67 3.32 -16.34 4.64 -16 6 C-15.0925 5.195625 -14.185 4.39125 -13.25 3.5625 C-8.87230175 -0.05830649 -5.64424423 -0.12827828 0 0 Z " fill="#D1D5DB" transform="translate(1188,399)"/>
<path d="M0 0 C4.95 0 9.9 0 15 0 C15.33 8.58 15.66 17.16 16 26 C17.65 24.68 19.3 23.36 21 22 C27.68794065 19.19106493 34.73847597 19.39275854 41.49609375 21.94140625 C48.99011495 25.77056042 54.13820614 31.55509998 57.3046875 39.3515625 C59.68811122 48.42999666 58.73749755 57.8874225 54 66 C51.6875 68.8125 51.6875 68.8125 49 71 C48.4740625 71.44085938 47.948125 71.88171875 47.40625 72.3359375 C41.28694919 77.14793314 34.75827351 78.69270299 27 78 C21.99847095 76.70958667 18.36373572 75.06451399 15 71 C14.67 72.65 14.34 74.3 14 76 C9.38 76 4.76 76 0 76 C0 50.92 0 25.84 0 0 Z M16.640625 39.73046875 C14.05847007 44.16080991 13.5176386 47.85500387 14.39453125 52.890625 C15.71699929 57.49793301 17.82892254 60.2015381 21.75 62.875 C25.69006541 64.2388688 28.88091554 64.73319703 33 64 C37.79876079 61.6006196 40.6704397 58.83831756 43 54 C43.7971639 49.00552411 43.57907893 45.20270239 41.375 40.625 C37.54923488 36.39652277 34.81257974 34.23016886 29.0625 33.5 C23.85443626 33.81865782 19.89246683 35.59091148 16.640625 39.73046875 Z " fill="#D1D5DB" transform="translate(897,379)"/>
<path d="M0 0 C37.32352941 0 37.32352941 0 45.3125 5.125 C50.34798723 10.51180029 52.22364132 15.69832273 52.4375 23.0625 C52.14501331 30.26498476 50.750634 35.36366906 45.9375 40.8125 C37.47993796 48.49800243 26.67944099 47.27151121 16 47 C16 55.58 16 64.16 16 73 C10.72 73 5.44 73 0 73 C0 48.91 0 24.82 0 0 Z M16 14 C16 20.27 16 26.54 16 33 C24.72374051 33.81212947 24.72374051 33.81212947 32.75 31.125 C35.84657637 28.20045565 35.96083319 27.48566848 36.3125 23.125 C36.28345157 19.92386325 36.16152336 19.20998037 34.125 16.5625 C30.24051874 13.70626378 27.68490884 13.89377356 22.875 13.9375 C19.471875 13.9684375 19.471875 13.9684375 16 14 Z " fill="#D1D5DB" transform="translate(495,382)"/>
<path d="M0 0 C5.94 0 11.88 0 18 0 C24.12835183 16.62301582 30.22604734 33.2496254 36 50 C38.77114191 43.97781214 41.21233198 37.91004369 43.41796875 31.66015625 C43.72068192 30.81198837 44.02339508 29.9638205 44.33528137 29.08995056 C45.28930867 26.41529085 46.23866082 23.7390041 47.1875 21.0625 C48.14783899 18.36129119 49.10917236 15.66044268 50.07185364 12.96006775 C50.66770198 11.28789597 51.26206397 9.61519366 51.8547821 7.94190979 C53.88908996 2.22182007 53.88908996 2.22182007 55 0 C60.94 0 66.88 0 73 0 C68.01641459 13.46914976 62.76859095 26.82830023 57.49951172 40.18798828 C55.95066305 44.12065852 54.41438245 48.05818753 52.87890625 51.99609375 C52.12245726 53.93305912 51.36576832 55.86993055 50.60897827 57.8067627 C49.88450184 59.66315259 49.16257069 61.52053515 48.44067383 63.37792969 C48.00392334 64.49458008 47.56717285 65.61123047 47.1171875 66.76171875 C46.73159668 67.75131592 46.34600586 68.74091309 45.94873047 69.76049805 C45 72 45 72 44 73 C41.46950598 73.07313567 38.96695163 73.09247527 36.4375 73.0625 C35.37112305 73.05573242 35.37112305 73.05573242 34.28320312 73.04882812 C32.52209987 73.03700864 30.76103964 73.01907263 29 73 C25.15912373 65.72575226 22.16091207 58.14743862 19.140625 50.5078125 C18.58604783 49.11147785 18.03125496 47.71522886 17.47625732 46.31906128 C16.3208922 43.41023164 15.16807055 40.50041091 14.01708984 37.58984375 C12.54007636 33.85539771 11.05673728 30.12350185 9.57153702 26.39230537 C8.42810957 23.51776888 7.28795022 20.64194507 6.14879608 17.76571274 C5.60275997 16.38816536 5.05571067 15.01101915 4.50763702 13.63428116 C3.74558079 11.71858407 2.98792484 9.80120558 2.23144531 7.88330078 C1.79938782 6.79268341 1.36733032 5.70206604 0.92218018 4.57839966 C0 2 0 2 0 0 Z " fill="#D1D5DB" transform="translate(947,382)"/>
<path d="M0 0 C4.95 0 9.9 0 15 0 C15.33 13.2 15.66 26.4 16 40 C21.13184188 34.86815812 26.00220172 29.99743132 30.6875 24.53125 C31.43125463 23.66353626 32.1918855 22.8081145 33 22 C34.63472882 21.91299658 36.27314055 21.89298937 37.91015625 21.90234375 C39.39418945 21.90717773 39.39418945 21.90717773 40.90820312 21.91210938 C41.94912109 21.92048828 42.99003906 21.92886719 44.0625 21.9375 C45.62967773 21.94426758 45.62967773 21.94426758 47.22851562 21.95117188 C49.8190666 21.96300087 52.40950559 21.97948311 55 22 C50.74201879 27.14918658 46.24121413 31.74541854 41.3125 36.25 C39.99571534 37.46313106 38.67929547 38.67665821 37.36328125 39.890625 C36.78876221 40.41688477 36.21424316 40.94314453 35.62231445 41.48535156 C34.04571899 42.95731519 32.51571047 44.46564081 31 46 C31.66 47.98 32.32 49.96 33 52 C33.66 52 34.32 52 35 52 C36.37212301 53.53195272 37.6715446 55.12921081 38.9375 56.75 C42.94231618 61.77232648 47.14641136 66.52206266 51.54467773 71.20214844 C55 74.90149936 55 74.90149936 55 76 C38.52544525 77.88833985 38.52544525 77.88833985 33.10205078 74.98339844 C29.86483034 72.34258616 27.46782715 69.09339054 25.13623047 65.65136719 C23.35187698 63.05803522 21.31693651 60.67477761 19.3125 58.25 C18.219375 56.8475 17.12625 55.445 16 54 C15.67 61.26 15.34 68.52 15 76 C10.05 76 5.1 76 0 76 C0 50.92 0 25.84 0 0 Z " fill="#D1D5DB" transform="translate(1099,379)"/>
<path d="M0 0 C8.3544262 9.07051988 9.1875 15.85216158 9.1875 28.375 C-4.0125 28.375 -17.2125 28.375 -30.8125 28.375 C-27.84204586 34.76727391 -27.84204586 34.76727391 -22.8125 37.375 C-18.5625039 37.96041986 -14.90664399 37.88560053 -11 36.0625 C-9.9171875 35.2271875 -9.9171875 35.2271875 -8.8125 34.375 C-7.4925 33.385 -6.1725 32.395 -4.8125 31.375 C-1.1825 34.015 2.4475 36.655 6.1875 39.375 C3.1145671 45.5208658 -1.83842653 48.87659298 -8.25 51.25 C-15.55068044 53.36632074 -23.70234904 53.16521414 -30.8125 50.375 C-38.20944839 45.75339617 -43.72571882 40.42157332 -46.26953125 31.9609375 C-48.10703265 23.20967183 -47.25778055 15.16407565 -42.8125 7.375 C-32.37720381 -7.89487645 -15.30394698 -8.84228047 0 0 Z M-29.8125 13.375 C-30.1425 14.695 -30.4725 16.015 -30.8125 17.375 C-22.5625 17.375 -14.3125 17.375 -5.8125 17.375 C-9.51835236 10.28101177 -9.51835236 10.28101177 -15.8125 7.375 C-21.20144342 6.56665849 -26.51572593 9.03713938 -29.8125 13.375 Z " fill="#D1D5DB" transform="translate(881.8125,404.625)"/>
<path d="M0 0 C6.03544671 5.12296017 9.37374645 12.16251087 10.3828125 19.95703125 C10.71680775 28.62977445 8.63995264 35.87233516 3.375 42.8125 C-3.05949929 49.60001421 -10.82194613 51.71299733 -19.95703125 52.06640625 C-28.12644116 51.88812644 -34.79422963 48.97791825 -40.73046875 43.36328125 C-47.47995161 35.9471828 -48.7518177 28.80294122 -48.40625 18.953125 C-47.62200034 11.32177257 -44.66824785 6.26064293 -39.125 1.0625 C-27.71476218 -8.0699879 -12.00079164 -8.38530813 0 0 Z M-32 15 C-33.72812003 20.18436008 -33.94480491 25.82694871 -31.75 30.875 C-28.08202601 35.40518953 -28.08202601 35.40518953 -23 38 C-18.37546271 38.37906043 -15.9500672 38.45676308 -11.75 36.4375 C-8.01421933 33.12623986 -5.57692115 29.99057084 -4.6171875 25.015625 C-4.3168916 19.85053549 -5.74399504 15.99416758 -9 12 C-12.8855606 8.55598038 -15.95382716 7.3427406 -21.04296875 7.60546875 C-25.4441641 8.49273568 -29.1824798 11.58931766 -32 15 Z " fill="#D1D5DB" transform="translate(726,405)"/>
<path d="M0 0 C9.13412509 0.60894167 16.66146761 3.74827811 22.9375 10.5 C29.24580644 18.36468651 29.57214284 26.36112694 28.75 36.25 C27.40036178 43.7155664 22.58728922 49.22213898 16.75 53.828125 C9.36125772 58.5547469 0.5306305 59.11921421 -8 57.6875 C-15.74051408 55.5428805 -21.39083625 50.75825812 -26.05859375 44.375 C-30.23774035 36.92104672 -30.68069074 27.79392662 -28.5625 19.5859375 C-25.07566923 11.13037288 -19.9207023 5.96029776 -11.63671875 2.18359375 C-7.7108073 0.64792626 -4.16534241 0.32041095 0 0 Z M-12.0625 20.3125 C-14.57761366 24.4161065 -14.73853585 28.56893831 -14.25 33.25 C-12.29614079 38.59740414 -9.33763713 41.70618143 -4.25 44.25 C1.135961 44.60317777 4.34851755 44.67337524 8.75 41.25 C12.01502559 38.34775503 13.55954273 36.41095748 13.953125 31.9453125 C14.10854632 25.08073869 14.10854632 25.08073869 10.75 19.25 C6.36520166 15.39993317 3.79094319 13.8893392 -2.15234375 13.96484375 C-6.46394851 14.55096507 -9.28150384 17.14791816 -12.0625 20.3125 Z " fill="#D1D5DB" transform="translate(576.25,398.75)"/>
<path d="M0 0 C2.95212921 2.07032438 5.64059514 4.26493571 8 7 C8 7.66 8 8.32 8 9 C6.217871 10.44074715 4.37339724 11.80510649 2.5 13.125 C1.4790625 13.84945313 0.458125 14.57390625 -0.59375 15.3203125 C-1.3878125 15.87460937 -2.181875 16.42890625 -3 17 C-3.763125 16.360625 -4.52625 15.72125 -5.3125 15.0625 C-9.10705608 12.15039882 -12.17749247 11.64390613 -16.9375 11.72265625 C-20.42504073 12.1916248 -22.4041149 13.70596201 -25 16 C-28.01915819 20.42809867 -28.90587108 24.72762672 -28 30 C-26.60402793 33.95919761 -24.68632629 36.52719745 -21.1875 38.9375 C-16.40269445 40.53243518 -12.78294524 40.87166212 -8.1875 38.625 C-5.94273063 37.04003788 -5.94273063 37.04003788 -4 35 C-0.35268865 35.29883433 1.62256648 37.15401927 4.25 39.5625 C5.30960938 40.52349609 5.30960938 40.52349609 6.390625 41.50390625 C7.18726563 42.24447266 7.18726563 42.24447266 8 43 C5.87288006 48.19962652 1.73858933 50.32815859 -3 53 C-11.05295436 56.28083326 -19.17547749 56.00141825 -27.25 53 C-34.7642367 49.5251522 -38.98263863 44.69767692 -42.4375 37.25 C-45.43933368 28.77729196 -45.00685668 20.38985615 -41.25 12.25 C-36.83327882 4.29990187 -30.69077907 0.04872692 -21.984375 -2.6171875 C-14.5389859 -4.05350272 -6.86555384 -3.20986933 0 0 Z " fill="#D1D5DB" transform="translate(1086,402)"/>
<path d="M0 0 C0 4.29 0 8.58 0 13 C3.63 13 7.26 13 11 13 C11 16.96 11 20.92 11 25 C7.37 25 3.74 25 0 25 C0.13810905 29.47944035 0.28677416 33.95846783 0.4375 38.4375 C0.47681641 39.71689453 0.51613281 40.99628906 0.55664062 42.31445312 C0.59853516 43.52939453 0.64042969 44.74433594 0.68359375 45.99609375 C0.72025146 47.12200928 0.75690918 48.2479248 0.79467773 49.40795898 C0.71218045 51.92853441 0.71218045 51.92853441 2 53 C3.34747084 53.23075082 4.70377565 53.41153063 6.0625 53.5625 C7.361875 53.706875 8.66125 53.85125 10 54 C10 58.29 10 62.58 10 67 C-6.61849657 67.76996895 -6.61849657 67.76996895 -12 63 C-14.61774911 57.95659114 -15.36471136 54.29847933 -15.29296875 48.53515625 C-15.28872391 47.85698349 -15.28447906 47.17881073 -15.28010559 46.48008728 C-15.26347941 44.34046598 -15.22586174 42.20183053 -15.1875 40.0625 C-15.17243222 38.60092518 -15.1587475 37.13933542 -15.14648438 35.67773438 C-15.11362977 32.11817603 -15.06196241 28.55918444 -15 25 C-17.64 25 -20.28 25 -23 25 C-23 21.04 -23 17.08 -23 13 C-20.36 13 -17.72 13 -15 13 C-15 9.04 -15 5.08 -15 1 C-9.92982987 0.45918185 -5.10415411 0 0 0 Z " fill="#D1D5DB" transform="translate(666,388)"/>
<path d="M0 0 C0 4.62 0 9.24 0 14 C-1.5675 14.4125 -3.135 14.825 -4.75 15.25 C-8.79287045 16.4622893 -11.45913607 17.46488497 -14 21 C-15.15839043 24.47517129 -15.22801218 27.6727002 -15.31640625 31.29296875 C-15.33718735 31.99899734 -15.35796844 32.70502594 -15.37937927 33.43244934 C-15.44467491 35.68403551 -15.50366647 37.93573662 -15.5625 40.1875 C-15.60570425 41.7155066 -15.64931916 43.24350164 -15.69335938 44.77148438 C-15.8011075 48.51420689 -15.90032855 52.25701879 -16 56 C-20.95 56 -25.9 56 -31 56 C-31 38.18 -31 20.36 -31 2 C-26.38 2 -21.76 2 -17 2 C-16.67 3.65 -16.34 5.3 -16 7 C-15.278125 6.21625 -14.55625 5.4325 -13.8125 4.625 C-9.0490769 0.17913844 -6.62572943 0 0 0 Z " fill="#D1D5DB" transform="translate(642,399)"/>
<path d="M0 0 C4.95 0 9.9 0 15 0 C15 17.82 15 35.64 15 54 C10.05 54 5.1 54 0 54 C0 36.18 0 18.36 0 0 Z " fill="#D1D5DB" transform="translate(1022,401)"/>
<path d="M0 0 C2.4375 1 2.4375 1 4 3 C5.02423502 6.57344218 5.32410511 9.76840059 4.375 13.375 C2.41665884 15.68940319 0.949226 16.27907809 -2 17 C-5.40443211 16.82390868 -7.96690909 16.65429091 -10.875 14.8125 C-12.5337914 12.14000274 -12.87669947 10.14416347 -13 7 C-10.22278033 -0.00917344 -7.29639143 -0.75131159 0 0 Z " fill="#D1D5DB" transform="translate(1033,380)"/>
</svg>
